<?xml version="1.0" encoding="UTF-8"?><svg id="Layer_2" xmlns="http://www.w3.org/2000/svg" viewBox="0 0 124.28 42.25"><defs><style>.cls-1{fill:#fff;}.cls-2{fill:#40a2db;}</style></defs><g id="Delete_When_Done"><g><g><g><path class="cls-1" d="M1.47,40.75c-.36-.2-.63-.47-.84-.81-.2-.35-.3-.74-.3-1.17s.1-.82,.3-1.17c.2-.35,.48-.62,.84-.81,.36-.2,.76-.29,1.2-.29,.33,0,.64,.06,.92,.17,.28,.11,.52,.27,.72,.49l-.3,.3c-.35-.35-.79-.53-1.32-.53-.35,0-.68,.08-.96,.24-.29,.16-.52,.38-.68,.66-.16,.28-.25,.6-.25,.94s.08,.66,.25,.95,.39,.5,.68,.66c.29,.16,.61,.24,.96,.24,.54,0,.98-.18,1.32-.54l.3,.3c-.2,.21-.43,.38-.72,.49-.28,.11-.59,.17-.92,.17-.44,0-.84-.1-1.2-.29Z"/><path class="cls-1" d="M5.41,40.82c-.26-.15-.46-.35-.61-.61s-.22-.55-.22-.88,.07-.62,.22-.88,.35-.46,.61-.61c.26-.14,.55-.22,.87-.22s.62,.07,.87,.22c.26,.15,.46,.35,.61,.61,.15,.26,.22,.55,.22,.88s-.07,.62-.22,.88c-.15,.26-.35,.46-.61,.61s-.55,.22-.87,.22-.62-.07-.87-.22Zm1.52-.34c.19-.11,.34-.26,.44-.46,.11-.2,.16-.43,.16-.68s-.05-.48-.16-.68c-.11-.2-.25-.35-.44-.46-.19-.11-.4-.16-.64-.16s-.45,.05-.64,.16c-.19,.11-.34,.26-.45,.46-.11,.2-.16,.43-.16,.68s.05,.48,.16,.68c.11,.2,.26,.35,.45,.46,.19,.11,.4,.16,.64,.16s.45-.05,.64-.16Z"/><path class="cls-1" d="M11.48,37.99c.25,.25,.37,.6,.37,1.07v1.95h-.45v-1.9c0-.35-.09-.62-.26-.8-.17-.18-.42-.27-.75-.27-.36,0-.65,.11-.86,.32-.21,.22-.32,.51-.32,.89v1.76h-.45v-3.36h.43v.62c.12-.2,.29-.36,.51-.48,.22-.11,.47-.17,.76-.17,.42,0,.76,.12,1.01,.37Z"/><path class="cls-1" d="M15.64,37.99c.25,.25,.37,.6,.37,1.07v1.95h-.45v-1.9c0-.35-.09-.62-.26-.8-.17-.18-.42-.27-.75-.27-.36,0-.65,.11-.86,.32-.21,.22-.32,.51-.32,.89v1.76h-.45v-3.36h.43v.62c.12-.2,.29-.36,.51-.48,.22-.11,.47-.17,.76-.17,.42,0,.76,.12,1.01,.37Z"/><path class="cls-1" d="M20.02,39.47h-2.81c.03,.35,.16,.63,.4,.85,.24,.21,.55,.32,.92,.32,.21,0,.4-.04,.57-.11,.17-.07,.33-.18,.45-.33l.26,.29c-.15,.18-.33,.32-.56,.41-.22,.09-.47,.14-.74,.14-.35,0-.65-.07-.92-.22s-.47-.35-.62-.61-.22-.55-.22-.88,.07-.62,.21-.88,.34-.46,.59-.61c.25-.14,.53-.22,.84-.22s.59,.07,.84,.22c.25,.15,.44,.35,.58,.6s.21,.55,.21,.88v.14Zm-2.44-1.15c-.22,.21-.34,.48-.37,.81h2.38c-.03-.33-.15-.6-.37-.81-.22-.21-.49-.31-.82-.31s-.6,.1-.81,.31Z"/><path class="cls-1" d="M21.3,40.82c-.26-.15-.47-.35-.62-.61-.15-.26-.22-.56-.22-.88s.07-.62,.22-.88,.35-.46,.62-.61c.26-.14,.56-.22,.89-.22,.29,0,.55,.06,.78,.17,.23,.11,.41,.28,.54,.5l-.34,.23c-.11-.17-.25-.29-.42-.37s-.36-.12-.56-.12c-.24,0-.46,.05-.65,.16-.19,.11-.35,.26-.45,.46-.11,.2-.16,.43-.16,.68s.05,.49,.16,.69c.11,.2,.26,.35,.45,.46,.19,.11,.41,.16,.65,.16,.2,0,.38-.04,.56-.12s.31-.2,.42-.37l.34,.23c-.13,.22-.31,.38-.54,.5-.23,.11-.49,.17-.77,.17-.33,0-.63-.07-.89-.22Z"/><path class="cls-1" d="M26.04,40.8c-.08,.08-.19,.13-.32,.18-.13,.04-.26,.06-.39,.06-.32,0-.56-.09-.73-.26s-.26-.41-.26-.72v-2.03h-.6v-.38h.6v-.73h.45v.73h1.02v.38h-1.02v2c0,.2,.05,.35,.15,.46,.1,.1,.24,.16,.43,.16,.09,0,.18-.02,.27-.04,.09-.03,.16-.07,.23-.13l.16,.33Z"/><path class="cls-1" d="M29.5,39.47h-2.81c.03,.35,.16,.63,.4,.85,.24,.21,.55,.32,.92,.32,.21,0,.4-.04,.57-.11,.17-.07,.33-.18,.45-.33l.26,.29c-.15,.18-.33,.32-.56,.41-.22,.09-.47,.14-.74,.14-.35,0-.65-.07-.92-.22s-.47-.35-.62-.61-.22-.55-.22-.88,.07-.62,.21-.88,.34-.46,.59-.61c.25-.14,.53-.22,.84-.22s.59,.07,.84,.22c.25,.15,.44,.35,.58,.6s.21,.55,.21,.88v.14Zm-2.44-1.15c-.22,.21-.34,.48-.37,.81h2.38c-.03-.33-.15-.6-.37-.81-.22-.21-.49-.31-.82-.31s-.6,.1-.81,.31Z"/><path class="cls-1" d="M31.18,37.8c.21-.12,.47-.17,.78-.17v.44h-.11c-.35,0-.63,.1-.83,.32s-.3,.52-.3,.91v1.71h-.45v-3.36h.43v.66c.11-.23,.27-.4,.48-.51Z"/><path class="cls-1" d="M34.19,36.27h.45v4.74h-.45v-4.74Z"/><path class="cls-1" d="M38.67,39.47h-2.81c.03,.35,.16,.63,.4,.85,.24,.21,.55,.32,.92,.32,.21,0,.4-.04,.57-.11,.17-.07,.33-.18,.45-.33l.26,.29c-.15,.18-.33,.32-.56,.41-.22,.09-.47,.14-.74,.14-.35,0-.65-.07-.92-.22s-.47-.35-.62-.61-.22-.55-.22-.88,.07-.62,.21-.88,.34-.46,.59-.61c.25-.14,.53-.22,.84-.22s.59,.07,.84,.22c.25,.15,.44,.35,.58,.6s.21,.55,.21,.88v.14Zm-2.44-1.15c-.22,.21-.34,.48-.37,.81h2.38c-.03-.33-.15-.6-.37-.81-.22-.21-.49-.31-.82-.31s-.6,.1-.81,.31Z"/><path class="cls-1" d="M39.56,40.92c-.25-.08-.44-.18-.58-.3l.2-.36c.14,.11,.32,.2,.53,.27,.21,.07,.43,.11,.66,.11,.31,0,.53-.05,.68-.14,.15-.1,.22-.23,.22-.41,0-.12-.04-.22-.12-.29-.08-.07-.18-.12-.31-.16-.12-.04-.29-.07-.49-.11-.27-.05-.49-.1-.66-.16-.17-.05-.31-.14-.42-.27-.12-.13-.18-.3-.18-.53,0-.28,.12-.51,.35-.69s.56-.27,.98-.27c.22,0,.43,.03,.65,.09s.4,.13,.54,.23l-.2,.36c-.28-.19-.61-.29-.99-.29-.29,0-.51,.05-.65,.15s-.22,.24-.22,.4c0,.13,.04,.23,.12,.31,.08,.08,.19,.13,.31,.17,.12,.04,.29,.07,.51,.11,.27,.05,.48,.1,.65,.15,.16,.05,.3,.14,.41,.26,.12,.12,.17,.29,.17,.51,0,.29-.12,.53-.37,.7s-.58,.26-1.02,.26c-.27,0-.53-.04-.78-.12Z"/><path class="cls-1" d="M46.1,37.95c.23,.22,.35,.54,.35,.97v2.08h-.43v-.52c-.1,.17-.25,.31-.45,.41s-.43,.15-.71,.15c-.37,0-.67-.09-.89-.27-.22-.18-.33-.42-.33-.71s.1-.52,.31-.69c.21-.17,.53-.26,.99-.26h1.07v-.2c0-.29-.08-.51-.24-.66-.16-.15-.4-.23-.71-.23-.21,0-.42,.04-.61,.11-.2,.07-.36,.17-.5,.29l-.2-.34c.17-.14,.37-.26,.61-.33s.49-.12,.75-.12c.44,0,.77,.11,1.01,.33Zm-.51,2.55c.18-.12,.32-.29,.41-.51v-.55h-1.05c-.57,0-.86,.2-.86,.6,0,.2,.07,.35,.22,.46,.15,.11,.36,.17,.63,.17s.47-.06,.66-.18Z"/><path class="cls-1" d="M48.04,40.82c-.26-.15-.47-.35-.62-.61-.15-.26-.22-.56-.22-.88s.07-.62,.22-.88,.35-.46,.62-.61c.26-.14,.56-.22,.89-.22,.29,0,.55,.06,.78,.17,.23,.11,.41,.28,.54,.5l-.34,.23c-.11-.17-.25-.29-.42-.37s-.36-.12-.56-.12c-.24,0-.46,.05-.65,.16-.19,.11-.35,.26-.45,.46-.11,.2-.16,.43-.16,.68s.05,.49,.16,.69c.11,.2,.26,.35,.45,.46,.19,.11,.41,.16,.65,.16,.2,0,.38-.04,.56-.12s.31-.2,.42-.37l.34,.23c-.13,.22-.31,.38-.54,.5-.23,.11-.49,.17-.77,.17-.33,0-.63-.07-.89-.22Z"/><path class="cls-1" d="M52.78,40.8c-.08,.08-.19,.13-.32,.18-.13,.04-.26,.06-.39,.06-.32,0-.56-.09-.73-.26s-.26-.41-.26-.72v-2.03h-.6v-.38h.6v-.73h.45v.73h1.02v.38h-1.02v2c0,.2,.05,.35,.15,.46,.1,.1,.24,.16,.43,.16,.09,0,.18-.02,.27-.04,.09-.03,.16-.07,.23-.13l.16,.33Z"/><path class="cls-1" d="M56.25,39.47h-2.81c.03,.35,.16,.63,.4,.85,.24,.21,.55,.32,.92,.32,.21,0,.4-.04,.57-.11,.17-.07,.33-.18,.45-.33l.26,.29c-.15,.18-.33,.32-.56,.41-.22,.09-.47,.14-.74,.14-.35,0-.65-.07-.92-.22s-.47-.35-.62-.61-.22-.55-.22-.88,.07-.62,.21-.88,.34-.46,.59-.61c.25-.14,.53-.22,.84-.22s.59,.07,.84,.22c.25,.15,.44,.35,.58,.6s.21,.55,.21,.88v.14Zm-2.44-1.15c-.22,.21-.34,.48-.37,.81h2.38c-.03-.33-.15-.6-.37-.81-.22-.21-.49-.31-.82-.31s-.6,.1-.81,.31Z"/><path class="cls-1" d="M60.05,37.65v3.36h-.43v-.61c-.12,.2-.28,.36-.49,.48-.21,.11-.45,.17-.72,.17-.44,0-.78-.12-1.04-.37-.25-.25-.38-.6-.38-1.08v-1.95h.45v1.9c0,.35,.09,.62,.26,.8s.42,.27,.75,.27c.35,0,.63-.11,.84-.32,.2-.21,.31-.51,.31-.9v-1.76h.45Z"/><path class="cls-1" d="M62.07,37.8c.21-.12,.47-.17,.78-.17v.44h-.11c-.35,0-.63,.1-.83,.32s-.3,.52-.3,.91v1.71h-.45v-3.36h.43v.66c.11-.23,.27-.4,.48-.51Z"/><path class="cls-1" d="M63.65,40.92c-.25-.08-.44-.18-.58-.3l.2-.36c.14,.11,.32,.2,.53,.27,.21,.07,.43,.11,.66,.11,.31,0,.53-.05,.68-.14,.15-.1,.22-.23,.22-.41,0-.12-.04-.22-.12-.29-.08-.07-.18-.12-.31-.16-.12-.04-.29-.07-.49-.11-.27-.05-.49-.1-.66-.16-.17-.05-.31-.14-.42-.27-.12-.13-.18-.3-.18-.53,0-.28,.12-.51,.35-.69s.56-.27,.98-.27c.22,0,.43,.03,.65,.09s.4,.13,.54,.23l-.2,.36c-.28-.19-.61-.29-.99-.29-.29,0-.51,.05-.65,.15s-.22,.24-.22,.4c0,.13,.04,.23,.12,.31,.08,.08,.19,.13,.31,.17,.12,.04,.29,.07,.51,.11,.27,.05,.48,.1,.65,.15,.16,.05,.3,.14,.41,.26,.12,.12,.17,.29,.17,.51,0,.29-.12,.53-.37,.7s-.58,.26-1.02,.26c-.27,0-.53-.04-.78-.12Z"/><path class="cls-1" d="M70.19,37.95c.23,.22,.35,.54,.35,.97v2.08h-.43v-.52c-.1,.17-.25,.31-.45,.41s-.43,.15-.71,.15c-.37,0-.67-.09-.89-.27-.22-.18-.33-.42-.33-.71s.1-.52,.31-.69c.21-.17,.53-.26,.99-.26h1.07v-.2c0-.29-.08-.51-.24-.66-.16-.15-.4-.23-.71-.23-.21,0-.42,.04-.61,.11-.2,.07-.36,.17-.5,.29l-.2-.34c.17-.14,.37-.26,.61-.33s.49-.12,.75-.12c.44,0,.77,.11,1.01,.33Zm-.51,2.55c.18-.12,.32-.29,.41-.51v-.55h-1.05c-.57,0-.86,.2-.86,.6,0,.2,.07,.35,.22,.46,.15,.11,.36,.17,.63,.17s.47-.06,.66-.18Z"/><path class="cls-1" d="M74.64,37.65v3.36h-.43v-.61c-.12,.2-.28,.36-.49,.48-.21,.11-.45,.17-.72,.17-.44,0-.78-.12-1.04-.37-.25-.25-.38-.6-.38-1.08v-1.95h.45v1.9c0,.35,.09,.62,.26,.8s.42,.27,.75,.27c.35,0,.63-.11,.84-.32,.2-.21,.31-.51,.31-.9v-1.76h.45Z"/><path class="cls-1" d="M77.89,41.01l-1.07-1.4-1.07,1.4h-.51l1.33-1.72-1.26-1.63h.51l1.01,1.32,1.01-1.32h.5l-1.26,1.63,1.34,1.72h-.52Z"/><path class="cls-1" d="M81.01,40.82c-.26-.15-.46-.35-.61-.61s-.22-.55-.22-.88,.07-.62,.22-.88,.35-.46,.61-.61c.26-.14,.55-.22,.87-.22s.62,.07,.87,.22c.26,.15,.46,.35,.61,.61,.15,.26,.22,.55,.22,.88s-.07,.62-.22,.88c-.15,.26-.35,.46-.61,.61s-.55,.22-.87,.22-.62-.07-.87-.22Zm1.52-.34c.19-.11,.34-.26,.44-.46,.11-.2,.16-.43,.16-.68s-.05-.48-.16-.68c-.11-.2-.25-.35-.44-.46-.19-.11-.4-.16-.64-.16s-.45,.05-.64,.16c-.19,.11-.34,.26-.45,.46-.11,.2-.16,.43-.16,.68s.05,.48,.16,.68c.11,.2,.26,.35,.45,.46,.19,.11,.4,.16,.64,.16s.45-.05,.64-.16Z"/><path class="cls-1" d="M86.94,37.84c.26,.14,.46,.34,.6,.6,.14,.26,.22,.56,.22,.89s-.07,.63-.22,.89c-.15,.26-.34,.46-.6,.6-.25,.14-.54,.21-.86,.21-.27,0-.52-.06-.74-.17-.22-.11-.4-.28-.54-.5v1.87h-.45v-4.6h.43v.66c.14-.22,.32-.39,.54-.51,.22-.12,.48-.18,.76-.18,.32,0,.6,.07,.86,.21Zm-.25,2.64c.19-.11,.34-.26,.45-.46,.11-.2,.16-.43,.16-.68s-.05-.48-.16-.68c-.11-.2-.26-.35-.45-.46-.19-.11-.4-.17-.64-.17s-.45,.06-.64,.17c-.19,.11-.34,.27-.45,.46-.11,.2-.16,.42-.16,.68s.05,.48,.16,.68c.11,.2,.26,.35,.45,.46,.19,.11,.4,.16,.64,.16s.45-.05,.64-.16Z"/><path class="cls-1" d="M91.11,37.84c.26,.14,.46,.34,.6,.6,.14,.26,.22,.56,.22,.89s-.07,.63-.22,.89c-.15,.26-.34,.46-.6,.6-.25,.14-.54,.21-.86,.21-.27,0-.52-.06-.74-.17-.22-.11-.4-.28-.54-.5v1.87h-.45v-4.6h.43v.66c.14-.22,.32-.39,.54-.51,.22-.12,.48-.18,.76-.18,.32,0,.6,.07,.86,.21Zm-.25,2.64c.19-.11,.34-.26,.45-.46,.11-.2,.16-.43,.16-.68s-.05-.48-.16-.68c-.11-.2-.26-.35-.45-.46-.19-.11-.4-.17-.64-.17s-.45,.06-.64,.17c-.19,.11-.34,.27-.45,.46-.11,.2-.16,.42-.16,.68s.05,.48,.16,.68c.11,.2,.26,.35,.45,.46,.19,.11,.4,.16,.64,.16s.45-.05,.64-.16Z"/><path class="cls-1" d="M93.2,40.82c-.26-.15-.46-.35-.61-.61s-.22-.55-.22-.88,.07-.62,.22-.88,.35-.46,.61-.61c.26-.14,.55-.22,.87-.22s.62,.07,.87,.22c.26,.15,.46,.35,.61,.61,.15,.26,.22,.55,.22,.88s-.07,.62-.22,.88c-.15,.26-.35,.46-.61,.61s-.55,.22-.87,.22-.62-.07-.87-.22Zm1.52-.34c.19-.11,.34-.26,.44-.46,.11-.2,.16-.43,.16-.68s-.05-.48-.16-.68c-.11-.2-.25-.35-.44-.46-.19-.11-.4-.16-.64-.16s-.45,.05-.64,.16c-.19,.11-.34,.26-.45,.46-.11,.2-.16,.43-.16,.68s.05,.48,.16,.68c.11,.2,.26,.35,.45,.46,.19,.11,.4,.16,.64,.16s.45-.05,.64-.16Z"/><path class="cls-1" d="M97.45,37.8c.21-.12,.47-.17,.78-.17v.44h-.11c-.35,0-.63,.1-.83,.32s-.3,.52-.3,.91v1.71h-.45v-3.36h.43v.66c.11-.23,.27-.4,.48-.51Z"/><path class="cls-1" d="M100.81,40.8c-.08,.08-.19,.13-.32,.18-.13,.04-.26,.06-.39,.06-.32,0-.56-.09-.73-.26s-.26-.41-.26-.72v-2.03h-.6v-.38h.6v-.73h.45v.73h1.02v.38h-1.02v2c0,.2,.05,.35,.15,.46,.1,.1,.24,.16,.43,.16,.09,0,.18-.02,.27-.04,.09-.03,.16-.07,.23-.13l.16,.33Z"/><path class="cls-1" d="M104.5,37.65v3.36h-.43v-.61c-.12,.2-.28,.36-.49,.48-.21,.11-.45,.17-.72,.17-.44,0-.78-.12-1.04-.37-.25-.25-.38-.6-.38-1.08v-1.95h.45v1.9c0,.35,.09,.62,.26,.8s.42,.27,.75,.27c.35,0,.63-.11,.84-.32,.2-.21,.31-.51,.31-.9v-1.76h.45Z"/><path class="cls-1" d="M108.32,37.99c.25,.25,.37,.6,.37,1.07v1.95h-.45v-1.9c0-.35-.09-.62-.26-.8-.17-.18-.42-.27-.75-.27-.36,0-.65,.11-.86,.32-.21,.22-.32,.51-.32,.89v1.76h-.45v-3.36h.43v.62c.12-.2,.29-.36,.51-.48,.22-.11,.47-.17,.76-.17,.42,0,.76,.12,1.01,.37Z"/><path class="cls-1" d="M109.76,36.82c-.06-.06-.1-.14-.1-.23,0-.08,.03-.16,.1-.22,.06-.06,.14-.1,.24-.1s.17,.03,.24,.09c.06,.06,.1,.14,.1,.22,0,.09-.03,.17-.1,.24-.06,.06-.14,.1-.24,.1s-.17-.03-.24-.1Zm0,.83h.45v3.36h-.45v-3.36Z"/><path class="cls-1" d="M113.1,40.8c-.08,.08-.19,.13-.32,.18-.13,.04-.26,.06-.39,.06-.32,0-.56-.09-.73-.26s-.26-.41-.26-.72v-2.03h-.6v-.38h.6v-.73h.45v.73h1.02v.38h-1.02v2c0,.2,.05,.35,.15,.46,.1,.1,.24,.16,.43,.16,.09,0,.18-.02,.27-.04,.09-.03,.16-.07,.23-.13l.16,.33Z"/><path class="cls-1" d="M116.56,39.47h-2.81c.03,.35,.16,.63,.4,.85,.24,.21,.55,.32,.92,.32,.21,0,.4-.04,.57-.11,.17-.07,.33-.18,.45-.33l.26,.29c-.15,.18-.33,.32-.56,.41-.22,.09-.47,.14-.74,.14-.35,0-.65-.07-.92-.22s-.47-.35-.62-.61-.22-.55-.22-.88,.07-.62,.21-.88,.34-.46,.59-.61c.25-.14,.53-.22,.84-.22s.59,.07,.84,.22c.25,.15,.44,.35,.58,.6s.21,.55,.21,.88v.14Zm-2.44-1.15c-.22,.21-.34,.48-.37,.81h2.38c-.03-.33-.15-.6-.37-.81-.22-.21-.49-.31-.82-.31s-.6,.1-.81,.31Zm1.27-1.99h.61l-1.03,.79h-.45l.87-.79Z"/><path class="cls-1" d="M117.45,40.92c-.25-.08-.44-.18-.58-.3l.2-.36c.14,.11,.32,.2,.53,.27,.21,.07,.43,.11,.66,.11,.31,0,.53-.05,.68-.14,.15-.1,.22-.23,.22-.41,0-.12-.04-.22-.12-.29-.08-.07-.18-.12-.31-.16-.12-.04-.29-.07-.49-.11-.27-.05-.49-.1-.66-.16-.17-.05-.31-.14-.42-.27-.12-.13-.18-.3-.18-.53,0-.28,.12-.51,.35-.69s.56-.27,.98-.27c.22,0,.43,.03,.65,.09s.4,.13,.54,.23l-.2,.36c-.28-.19-.61-.29-.99-.29-.29,0-.51,.05-.65,.15s-.22,.24-.22,.4c0,.13,.04,.23,.12,.31,.08,.08,.19,.13,.31,.17,.12,.04,.29,.07,.51,.11,.27,.05,.48,.1,.65,.15,.16,.05,.3,.14,.41,.26,.12,.12,.17,.29,.17,.51,0,.29-.12,.53-.37,.7s-.58,.26-1.02,.26c-.27,0-.53-.04-.78-.12Z"/></g><path class="cls-1" d="M92.98,23.35c-.19-.31-.39-.61-.64-.91h0c-.65-.9-1.02-1.45-1.67-1.96l-1.53,4.73-2.85-8.82h-4.21l4.97,14.61h4.21l2.28-6.69c-.18-.32-.37-.64-.57-.95Z"/><path class="cls-2" d="M29.61,21.2h-4.39c-.1-.15-.21-.3-.34-.44-.68-.76-1.55-1.14-2.61-1.14s-1.93,.38-2.61,1.14c-.12,.14-.24,.28-.34,.44h-4.39c.36-1.07,.96-2.02,1.81-2.87,1.47-1.46,3.31-2.18,5.52-2.18s4.06,.73,5.52,2.18c.85,.84,1.45,1.8,1.81,2.87Z"/><path class="cls-2" d="M47.07,21.2h-4.5c-.1-.15-.21-.3-.33-.44-.69-.8-1.51-1.19-2.47-1.19s-1.77,.39-2.43,1.18c-.12,.14-.23,.29-.33,.45h-4.68V10.85h4.07v7.17c1.12-1.25,2.57-1.87,4.34-1.87s3.32,.69,4.64,2.08c.81,.85,1.37,1.84,1.68,2.98Z"/><path class="cls-2" d="M124.28,1.1c-.53,.44-1.05,.85-1.55,1.27-1.52,1.27-2.92,2.67-4.29,4.09-1.39,1.44-2.71,2.95-3.96,4.51-.95,1.18-1.89,2.37-2.82,3.57-.83,1.08-1.66,2.15-2.42,3.27-1.1,1.61-2.17,3.25-3.22,4.89-.58,.9-1.11,1.83-1.63,2.77-.53,.97-1.03,1.96-1.52,2.95-.15,.3-.36,.52-.63,.71-1.23,.85-2.44,1.71-3.66,2.57-.24,.17-.46,.37-.72,.58-.06-.1-.12-.18-.15-.27h0c-.63-1.96-1.46-3.83-2.28-5.71-.28-.64-.58-1.28-.9-1.9v-.02c-.31-.57-.63-1.13-.97-1.68-.19-.31-.39-.61-.64-.91h0c-.74-1.03-1.13-1.6-1.97-2.17,.34-1.05,.81-1.61,1.55-2.05,.64-.38,1.34-.57,2.07-.69,.57-.1,1.1,.19,1.55,.54,.62,.48,1.06,1.11,1.48,1.76,.78,1.21,1.37,2.5,1.94,3.82,.12,.27,.25,.53,.41,.86,.11-.15,.2-.25,.27-.36,.6-.93,1.16-1.88,1.79-2.8,.72-1.06,1.49-2.09,2.25-3.11,1.03-1.39,2.13-2.72,3.29-4.01,.78-.87,1.57-1.73,2.38-2.57,.78-.82,1.56-1.64,2.38-2.42,.95-.91,1.94-1.79,2.93-2.66,1.8-1.59,3.7-3.05,5.71-4.38,.77-.51,1.56-.97,2.34-1.46,.06-.04,.13-.06,.22-.09,.26,.37,.52,.73,.78,1.1Z"/><path class="cls-1" d="M72.47,16.18c-1.77,0-3.32,.69-4.64,2.08-1.32,1.38-1.98,3.16-1.98,5.33s.68,3.99,2.04,5.46c1.36,1.47,2.9,2.2,4.63,2.2s3.16-.71,4.3-2.14v1.93h4.07v-14.64h-4.07v1.67c-1.12-1.25-2.57-1.87-4.34-1.87Zm4.4,7.56c0,1.19-.33,2.15-.99,2.9-.66,.75-1.46,1.13-2.4,1.13s-1.76-.38-2.47-1.13c-.71-.75-1.06-1.71-1.06-2.89s.34-2.16,1.03-2.96c.69-.8,1.51-1.19,2.47-1.19s1.77,.39,2.43,1.18c.66,.79,.99,1.77,.99,2.96Z"/></g><path class="cls-1" d="M63.21,13.71c-1.33-1.13-3.45-1.7-6.37-1.7h-6.71v10.02h-4.87s-2,.01-2,1.79h0c-.02,1.13-.37,2.05-1.06,2.78-.71,.75-1.53,1.13-2.47,1.13s-1.74-.38-2.4-1.13c-.66-.75-.99-1.72-.99-2.91,0-.02,0-.05,0-.08h0c-.17-1.55-1.96-1.59-1.96-1.59h-6.54s-1.8,.04-1.96,1.61c0,.01,0,.03,0,.04,0,1.2-.34,2.17-1.02,2.92-.68,.75-1.55,1.13-2.61,1.13s-1.93-.38-2.61-1.13c-.65-.71-.98-1.63-1.02-2.74,0-.03,0-.06,0-.09-.07-1.69-1.97-1.74-1.97-1.74h-4.47V12.02H2.33v3.64H7.95v8.9c0,.92-.21,1.62-.64,2.08-.43,.46-.94,.69-1.53,.69-1.25,0-2.44-.62-3.58-1.85l-2.2,3.04c1.7,1.76,3.69,2.63,5.97,2.63,1.83,0,3.33-.56,4.49-1.68,.93-.89,1.49-2.15,1.68-3.77h2.66c.33,1.26,.98,2.37,1.95,3.34,1.47,1.45,3.31,2.17,5.52,2.17s4.06-.72,5.52-2.17c.98-.96,1.63-2.08,1.95-3.34h2.58v5.29h4.07v-1.93c1.14,1.43,2.57,2.14,4.3,2.14s3.27-.73,4.63-2.2c.88-.95,1.48-2.06,1.79-3.31h3.02v5.29h4.24V15.65h2.42c1.39,0,2.42,.23,3.08,.69,.66,.46,.99,1.24,.99,2.33s-.25,1.93-.76,2.5c-.51,.57-1.47,.85-2.88,.85h-2.01v3.67h1.69c2.81,0,4.89-.54,6.26-1.63,1.37-1.09,2.05-2.8,2.05-5.15s-.66-4.08-1.99-5.21Z"/></g></g></svg>